<?xml version="1.0" encoding="UTF-8" standalone="no"?>
<!-- Created with Inkscape (http://www.inkscape.org/) -->

<svg
   width="207.22414mm"
   height="76.665268mm"
   viewBox="0 0 207.22414 76.665268"
   version="1.1"
   id="svg1"
   xml:space="preserve"
   inkscape:version="1.3 (0e150ed6c4, 2023-07-21)"
   sodipodi:docname="logoPrincipal.svg"
   xmlns:inkscape="http://www.inkscape.org/namespaces/inkscape"
   xmlns:sodipodi="http://sodipodi.sourceforge.net/DTD/sodipodi-0.dtd"
   xmlns="http://www.w3.org/2000/svg"
   xmlns:svg="http://www.w3.org/2000/svg"><sodipodi:namedview
     id="namedview1"
     pagecolor="#ffffff"
     bordercolor="#000000"
     borderopacity="0.25"
     inkscape:showpageshadow="2"
     inkscape:pageopacity="0.0"
     inkscape:pagecheckerboard="0"
     inkscape:deskcolor="#d1d1d1"
     inkscape:document-units="mm"
     showguides="true"
     inkscape:zoom="0.7011013"
     inkscape:cx="191.12787"
     inkscape:cy="568.39147"
     inkscape:window-width="1920"
     inkscape:window-height="1001"
     inkscape:window-x="-9"
     inkscape:window-y="-9"
     inkscape:window-maximized="1"
     inkscape:current-layer="layer1" /><defs
     id="defs1" /><g
     inkscape:label="Camada 1"
     inkscape:groupmode="layer"
     id="layer1"
     transform="translate(34.763547,-87.096738)"><path
       id="path1"
       style="fill:#122556;fill-opacity:1;stroke:none;stroke-width:0.339726;stroke-linecap:round;stroke-linejoin:round;stroke-dasharray:none;stroke-opacity:1"
       d="m 50.644827,88.022094 -18.270238,56.410026 15.22432,0.32139 2.40338,-6.89239 h 20.833399 l 2.405114,7.21191 H 88.305379 L 69.875394,88.022206 Z m 9.61528,18.108756 6.249845,16.98691 H 54.329776 Z"
       inkscape:export-filename="logoPrincipalGrande.svg"
       inkscape:export-xdpi="96"
       inkscape:export-ydpi="96" /><path
       id="path2"
       style="fill:#122556;fill-opacity:1;stroke:none;stroke-width:0.339726;stroke-linecap:round;stroke-linejoin:round;stroke-dasharray:none;stroke-opacity:1"
       d="m 89.105898,87.86059 v 56.89281 l 13.781252,0.15977 v -21.79543 l 14.58352,21.63566 h 16.98867 l -17.14842,-23.87928 c 17.91623,-2.72198 15.06184,-32.538394 -3.22006,-32.739163 z m 14.602872,10.867005 c 5.09496,0.0044 10.95017,1.663705 11.00566,5.775835 l 0.0405,2.97043 c 0.0855,6.3495 -8.13322,5.73697 -12.05203,6.11993 V 98.74866 c 0.33089,-0.01333 0.66631,-0.02 1.00596,-0.02 z"
       sodipodi:nodetypes="cccccccsccccccc" /><path
       style="fill:#ffbf01;fill-opacity:1;stroke:none;stroke-width:0.339726;stroke-linecap:round;stroke-linejoin:round;stroke-dasharray:none;stroke-opacity:1"
       d="m 29.884945,130.04462 9.632117,-40.114936 2.266375,5.099371 z"
       id="path4" /><path
       style="fill:#ffbf01;fill-opacity:1;stroke:none;stroke-width:0.339726;stroke-linecap:round;stroke-linejoin:round;stroke-dasharray:none;stroke-opacity:1"
       d="m 38.157231,87.77666 -2.03974,-0.05689 -12.975028,56.77284 2.266375,-0.0569 z"
       id="path5" /><path
       style="fill:#ffbf01;fill-opacity:1;stroke:none;stroke-width:0.339726;stroke-linecap:round;stroke-linejoin:round;stroke-dasharray:none;stroke-opacity:1"
       d="m 21.725971,142.6797 10.14205,-41.92803 -12.408427,36.99868 z"
       id="path6" /><path
       style="fill:#ffbf01;fill-opacity:1;stroke:none;stroke-width:0.339726;stroke-linecap:round;stroke-linejoin:round;stroke-dasharray:none;stroke-opacity:1"
       d="m 15.776727,136.22054 2.549673,0.16977 13.93824,-41.021513 -2.832978,0.509935 z"
       id="path7" /><path
       style="fill:#ffbf01;fill-opacity:1;stroke:none;stroke-width:0.339726;stroke-linecap:round;stroke-linejoin:round;stroke-dasharray:none;stroke-opacity:1"
       d="M 26.202079,89.363107 28.298478,95.029055 16.853253,129.5347 Z"
       id="path8" /><path
       style="fill:#ffbf01;fill-opacity:1;stroke:none;stroke-width:0.339726;stroke-linecap:round;stroke-linejoin:round;stroke-dasharray:none;stroke-opacity:1"
       d="M 22.292573,87.323367 25.01222,87.436918 11.810564,144.49303 H 9.6008418 Z"
       id="path9" /><path
       style="fill:#ffbf01;fill-opacity:1;stroke:none;stroke-width:0.339726;stroke-linecap:round;stroke-linejoin:round;stroke-dasharray:none;stroke-opacity:1"
       d="M 8.2410146,142.62304 17.759809,102.90474 6.0312907,137.18373 Z"
       id="path10" /><path
       style="fill:#ffbf01;fill-opacity:1;stroke:none;stroke-width:0.339726;stroke-linecap:round;stroke-linejoin:round;stroke-dasharray:none;stroke-opacity:1"
       d="M 2.4617418,136.10722 5.1247363,136.33381 18.3264,95.708939 15.663408,96.105567 Z"
       id="path11" /><path
       style="fill:#ffbf01;fill-opacity:1;stroke:none;stroke-width:0.339726;stroke-linecap:round;stroke-linejoin:round;stroke-dasharray:none;stroke-opacity:1"
       d="M 12.547127,89.646384 14.416896,94.972413 3.368294,130.15797 Z"
       id="path12" /><path
       style="fill:#ffbf01;fill-opacity:1;stroke:none;stroke-width:0.339726;stroke-linecap:round;stroke-linejoin:round;stroke-dasharray:none;stroke-opacity:1"
       d="m 9.0342403,87.436696 2.2663857,0.509935 -13.03169,56.376209 -2.0964041,0.11355 z"
       id="path13" /><path
       style="fill:#ffbf01;fill-opacity:1;stroke:none;stroke-width:0.339726;stroke-linecap:round;stroke-linejoin:round;stroke-dasharray:none;stroke-opacity:1"
       d="m -7.5669901,137.35372 2.436357,5.72261 9.0088576,-38.75512 z"
       id="path14" /><path
       style="fill:#ffbf01;fill-opacity:1;stroke:none;stroke-width:0.339726;stroke-linecap:round;stroke-linejoin:round;stroke-dasharray:none;stroke-opacity:1"
       d="m -10.909908,136.16388 2.4363657,0.16977 L 5.1247363,95.708761 2.801697,95.651875 Z"
       id="path15" /><path
       style="fill:#ffbf01;fill-opacity:1;stroke:none;stroke-width:0.339726;stroke-linecap:round;stroke-linejoin:round;stroke-dasharray:none;stroke-opacity:1"
       d="M 1.4985297,94.745756 -0.99449384,89.816377 -9.2667746,125.90849 Z"
       id="path16" /><path
       style="fill:#ffbf01;fill-opacity:1;stroke:none;stroke-width:0.339726;stroke-linecap:round;stroke-linejoin:round;stroke-dasharray:none;stroke-opacity:1"
       d="m -2.1843368,87.606645 -2.4930236,0.16977 -12.4084286,56.602825 2.153059,-0.45323 z"
       id="path17" /><path
       style="fill:#ffbf01;fill-opacity:1;stroke:none;stroke-width:0.339726;stroke-linecap:round;stroke-linejoin:round;stroke-dasharray:none;stroke-opacity:1"
       d="m -18.728916,142.50976 -2.266377,-4.98607 11.2185768,-32.40922 z"
       id="path18" /><path
       style="fill:#ffbf01;fill-opacity:1;stroke:none;stroke-width:0.339726;stroke-linecap:round;stroke-linejoin:round;stroke-dasharray:none;stroke-opacity:1"
       d="m -24.168225,136.16388 2.039738,0.45325 13.7116024,-40.681534 -2.3796944,-0.16977 z"
       id="path19" /><path
       style="fill:#ffbf01;fill-opacity:1;stroke:none;stroke-width:0.339726;stroke-linecap:round;stroke-linejoin:round;stroke-dasharray:none;stroke-opacity:1"
       d="m -14.592766,89.873042 2.549675,5.892606 -11.388561,33.429092 z"
       id="path20" /><path
       style="fill:#ffbf01;fill-opacity:1;stroke:none;stroke-width:0.339726;stroke-linecap:round;stroke-linejoin:round;stroke-dasharray:none;stroke-opacity:1"
       d="m -17.765697,87.096732 2.266377,0.453248 -13.201668,56.94285 -2.266375,-0.11355 z"
       id="path21" /><path
       style="fill:#ffbf01;fill-opacity:1;stroke:none;stroke-width:0.339726;stroke-linecap:round;stroke-linejoin:round;stroke-dasharray:none;stroke-opacity:1"
       d="m -34.763549,137.12708 2.889629,5.60929 8.89554,-40.1716 z"
       id="path22" /><text
       xml:space="preserve"
       style="font-style:italic;font-variant:normal;font-weight:normal;font-stretch:normal;font-size:16.6712px;font-family:Corbel;-inkscape-font-specification:'Corbel, Italic';font-variant-ligatures:normal;font-variant-caps:normal;font-variant-numeric:normal;font-variant-east-asian:normal;letter-spacing:0.327387px;fill:#122556;fill-opacity:1;stroke:#ffffff;stroke-width:0.339726;stroke-linecap:round;stroke-linejoin:round;stroke-dasharray:none;stroke-opacity:1"
       x="31.461508"
       y="154.84415"
       id="text22"
       transform="scale(0.97090772,1.029964)"><tspan
         sodipodi:role="line"
         id="tspan22"
         style="font-style:italic;font-variant:normal;font-weight:normal;font-stretch:normal;font-size:16.6712px;font-family:Corbel;-inkscape-font-specification:'Corbel, Italic';font-variant-ligatures:normal;font-variant-caps:normal;font-variant-numeric:normal;font-variant-east-asian:normal;fill:#122556;fill-opacity:1;stroke:#ffffff;stroke-width:0.339726;stroke-dasharray:none;stroke-opacity:1"
         x="31.461508"
         y="154.84415">Tradição e Qualidade</tspan></text><path
       style="fill:#122556;fill-opacity:1;stroke:none;stroke-width:0.339726;stroke-linecap:round;stroke-linejoin:round;stroke-dasharray:none;stroke-opacity:1"
       d="m 164.15868,103.44409 6.23255,-10.821982 c -14.25535,-6.107686 -34.23444,-7.821061 -36.99865,11.728522 -0.73522,12.0506 6.26519,14.82791 14.44819,16.77121 5.00835,0.77717 9.70092,1.843 9.51879,7.36575 -3.00917,8.78787 -13.68198,3.4921 -20.45409,-1.30315 l -6.28921,11.38856 c 6.36609,2.91664 12.24182,6.99792 20.73739,6.34586 6.47756,-0.49718 19.71633,-2.05796 21.02064,-18.58432 0.52582,-6.66233 -0.99676,-13.22828 -14.61815,-15.46806 -4.42268,-1.16773 -9.49255,-1.68829 -9.85875,-6.91245 1.02527,-3.35862 3.98041,-4.856317 9.23551,-4.136146 2.78156,0.817966 5.57073,1.629116 7.02578,3.626206 z"
       id="path23"
       sodipodi:nodetypes="cccccccsscccc" /></g></svg>
