<?xml version="1.0" encoding="UTF-8" standalone="no"?>
<!-- Created with Inkscape (http://www.inkscape.org/) -->

<svg
   width="16.561586mm"
   height="17.810432mm"
   viewBox="0 0 16.561586 17.810432"
   version="1.1"
   id="svg1"
   xml:space="preserve"
   xmlns:inkscape="http://www.inkscape.org/namespaces/inkscape"
   xmlns:sodipodi="http://sodipodi.sourceforge.net/DTD/sodipodi-0.dtd"
   xmlns="http://www.w3.org/2000/svg"
   xmlns:svg="http://www.w3.org/2000/svg"><sodipodi:namedview
     id="namedview1"
     pagecolor="#ffffff"
     bordercolor="#000000"
     borderopacity="0.25"
     inkscape:showpageshadow="2"
     inkscape:pageopacity="0.0"
     inkscape:pagecheckerboard="0"
     inkscape:deskcolor="#d1d1d1"
     inkscape:document-units="mm" /><defs
     id="defs1" /><g
     inkscape:label="Camada 1"
     inkscape:groupmode="layer"
     id="layer1"
     transform="translate(-160.34142,-59.006716)"><path
       id="path8"
       style="fill:none;stroke:#030275;stroke-width:0.243;stroke-linecap:round;stroke-linejoin:round;stroke-dasharray:none;stroke-opacity:1"
       d="m 163.63855,69.179494 c -0.1183,-0.164569 -0.63482,-0.833335 -0.62918,-0.813592 0.81821,2.373149 1.93505,2.705116 3.34619,1.500184 1.01332,-1.02696 0.96662,-1.435788 1.89334,-0.437091 0.93349,0.834205 1.80932,0.606203 2.5601,-0.444763 0.7976,-1.116504 0.87453,-2.617265 0.58579,-4.360848 -0.23788,-1.436437 -0.47882,-2.868128 -1.18242,-4.089652 -0.90807,-1.576492 -2.95838,-1.122052 -3.70998,0.08678 -0.65826,1.058733 -0.99404,2.347888 -1.25835,4.002869 -0.44796,2.804914 -0.43602,5.481784 -0.7485,8.190149 m -4.01049,2.913791 c -0.14335,1.016369 0.45339,1.498789 0.65967,0.107388 0.8693,-5.863705 -0.2176,-13.090343 0.55228,-16.706588 0.13051,6.044782 0.85902,8.275424 1.68754,11.889446 0.20344,0.710502 0.36606,0.422721 0.5983,-0.191766 0.5816,-1.7086 0.86945,-3.437357 1.15102,-5.165903 -0.12288,3.654771 2.8992,8.207082 2.85304,-0.08846 0.0711,0.654692 0.0979,1.320427 0.27614,1.948334 0.80955,2.276875 1.62317,1.56848 2.05573,-0.214777 0.15651,-0.66601 0.35895,-1.327427 0.65967,-1.979017 0.30846,1.13435 0.65731,2.246487 1.53412,3.068244 1.00076,0.950451 1.78552,0.63423 2.51596,-0.460237 0.57888,-0.867391 1.16102,-1.680988 1.4881,-2.485278 0.76792,-2.411212 -0.23089,-2.900721 -1.77958,-2.792101 -1.64067,0.186323 -3.07529,1.028233 -4.49498,1.917652 -0.48732,0.317053 -0.91859,0.634104 -1.24264,0.951156 -1.35586,1.245557 -0.14747,1.388279 0.64433,1.380709 1.07016,-0.01024 2.50621,-0.518296 3.80462,-0.828426" /></g></svg>
