<?xml version="1.0" encoding="UTF-8" standalone="no"?>
<!-- Created with Inkscape (http://www.inkscape.org/) -->

<svg
   width="26.032084mm"
   height="18.894321mm"
   viewBox="0 0 26.032084 18.894321"
   version="1.1"
   id="svg1"
   xml:space="preserve"
   xmlns:inkscape="http://www.inkscape.org/namespaces/inkscape"
   xmlns:sodipodi="http://sodipodi.sourceforge.net/DTD/sodipodi-0.dtd"
   xmlns="http://www.w3.org/2000/svg"
   xmlns:svg="http://www.w3.org/2000/svg"><sodipodi:namedview
     id="namedview1"
     pagecolor="#ffffff"
     bordercolor="#000000"
     borderopacity="0.25"
     inkscape:showpageshadow="2"
     inkscape:pageopacity="0.0"
     inkscape:pagecheckerboard="0"
     inkscape:deskcolor="#d1d1d1"
     inkscape:document-units="mm" /><defs
     id="defs1" /><g
     inkscape:label="Camada 1"
     inkscape:groupmode="layer"
     id="layer1"
     transform="translate(-161.95334,-45.010737)"><path
       id="path6"
       style="fill:none;stroke:#030275;stroke-width:0.242845;stroke-linecap:round;stroke-dasharray:none;stroke-opacity:1"
       d="m 172.00628,54.238671 c -0.46318,1.850305 0.20967,2.519359 1.94846,1.252575 0.81104,-0.657778 1.42932,-1.469755 1.93207,-2.374165 0.60169,-1.281749 -0.1531,-1.65616 -0.89236,-0.515761 -0.36722,0.566482 -0.6777,1.096267 -0.87598,1.620975 -0.75365,2.191333 0.57421,1.716425 1.30988,1.047909 0.48833,-0.53246 0.84314,-1.104972 1.11341,-1.702846 0.31522,-0.772266 -0.13632,-1.239375 -0.76138,-0.319286 l -0.95785,1.63735 c -0.68228,1.87281 0.37251,1.516459 0.79412,1.023347 0.54354,-0.723672 0.80975,-1.530426 0.75317,-2.325041 l -0.0737,-1.268946 c -0.47724,-2.368319 -3.22799,-2.991765 -4.95299,-2.194055 -2.70551,1.331727 -4.90261,3.452349 -6.71314,6.172818 -1.49083,2.392368 -1.33164,4.052684 1.55548,4.502718 1.92248,0.127083 3.87654,-0.630634 5.82898,-1.342627 2.6414,-1.042831 4.86986,-2.246235 6.95875,-3.503935 2.98342,-1.605415 6.26328,-3.71245 8.89081,-4.715569 m -14.62154,0.01637 c -2.61383,4.866862 -0.32281,6.037162 1.27713,1.506359 0.86168,-2.084497 1.58909,-4.207125 2.19405,-6.365205 0.3057,-1.090526 0.24041,-2.05621 -0.72044,-0.266068 z m -3.72316,6.853445 c 1.23369,2.500078 2.90989,-6.653386 4.36484,-9.980082 m -4.80479,8.596533 c 0.22453,0.992208 0.51859,1.636838 0.85096,2.089801 m -7.85555,4.526929 0.16209,0.532575 0.99569,-8.266565 0.65796,4.730535 c 0.35982,1.731201 1.25956,2.295653 1.35659,-0.469899 0.0655,-1.709826 0.1352,-3.284402 0.60345,-5.079029 0.29818,0.412705 0.42847,1.395118 0.53118,2.763472 0.33291,2.266635 1.06153,2.835803 1.14479,0.177054 l -0.0342,-1.29672 c 0.12652,-1.143741 0.31094,-0.57017 0.37958,-0.03678 l 0.40933,2.456026 c 0.12528,0.556244 0.55694,0.768201 0.745,-0.02455 0.42444,-2.349361 -0.58522,-4.285724 -0.32209,-6.393855 0.0228,-0.625993 0.22276,-0.907297 0.46127,-0.360219" /></g></svg>
