<?xml version="1.0" encoding="UTF-8" standalone="no"?>
<!-- Created with Inkscape (http://www.inkscape.org/) -->

<svg
   width="25.592455mm"
   height="11.891619mm"
   viewBox="0 0 25.592455 11.891619"
   version="1.1"
   id="svg1"
   xml:space="preserve"
   xmlns:inkscape="http://www.inkscape.org/namespaces/inkscape"
   xmlns:sodipodi="http://sodipodi.sourceforge.net/DTD/sodipodi-0.dtd"
   xmlns="http://www.w3.org/2000/svg"
   xmlns:svg="http://www.w3.org/2000/svg"><sodipodi:namedview
     id="namedview1"
     pagecolor="#ffffff"
     bordercolor="#000000"
     borderopacity="0.25"
     inkscape:showpageshadow="2"
     inkscape:pageopacity="0.0"
     inkscape:pagecheckerboard="0"
     inkscape:deskcolor="#d1d1d1"
     inkscape:document-units="mm"
     showguides="true"><sodipodi:guide
       position="-2.0971422,313.30966"
       orientation="0,-1"
       id="guide3"
       inkscape:locked="false" /><sodipodi:guide
       position="-1.1768112,297.44491"
       orientation="0,-1"
       id="guide4"
       inkscape:locked="false" /><sodipodi:guide
       position="-0.11332716,306.26816"
       orientation="1,0"
       id="guide5"
       inkscape:locked="false" /><sodipodi:guide
       position="7.8198948,284.69971"
       orientation="0,-1"
       id="guide6"
       inkscape:locked="false" /><sodipodi:guide
       position="25.979531,291.33139"
       orientation="1,0"
       id="guide7"
       inkscape:locked="false" /></sodipodi:namedview><defs
     id="defs1" /><g
     inkscape:groupmode="layer"
     id="layer2"
     inkscape:label="Camada 2"
     transform="translate(-90.229769,-131.24144)"><path
       style="fill:none;stroke:#030275;stroke-width:0.243;stroke-linecap:round;stroke-linejoin:round;stroke-dasharray:none;stroke-opacity:1"
       d="m 91.929313,140.82364 c 0.08357,-1.23873 -0.478698,-2.3255 -0.780856,-3.47347 0.0312,-0.88377 0.78295,-1.51375 1.373229,-0.88855 1.406629,1.48982 0.116292,2.02186 -0.861633,2.42334 0.910355,-0.29105 1.70581,-0.0651 2.261789,1.2386 0.185981,0.45509 0.427752,0.8358 0.915487,0.88856 0.557229,0.0597 0.66897,-0.19513 0.80778,-0.43082 0.41563,-1.11339 1.11958,-1.00565 1.965603,-0.29619 0.261226,-1.07697 0.206228,-1.48984 1.534788,0.0269 -0.03936,-1.30563 0.344833,-1.03925 1.40015,0.0538 2.40644,-2.28659 0.30136,-5.83171 -1.48093,-6.27377 -2.397699,-0.59471 -4.474295,-0.73157 -5.627547,-0.35004 l -1.038686,0.35664 c -1.107143,0.40642 -1.562344,1.26563 -1.950108,2.03978 -0.48167,1.15731 0.955324,1.11132 1.292452,1.37323 l 2.127159,0.43081 c 0.888881,0.19778 1.659696,0.27749 2.369495,0.29619 2.396638,-0.10666 3.943855,0.88778 5.385215,2.01945 0.23107,-0.0177 0.46214,-0.0719 0.69321,-0.18817 0.20841,-0.42298 0.41888,-0.84142 0.83774,-0.79966 0.97094,0.063 1.02956,0.37934 1.22805,0.65686 -0.14366,-0.41577 -0.3779,-0.75209 -1.02813,-0.7235 -0.27255,0.0393 -0.52188,0.13534 -0.71399,0.37127 0.0796,0.33332 0.20434,0.60857 0.40935,0.78062 0.39349,0.32516 0.78697,0.60954 1.18046,0.0286 0.0879,-0.14685 0.11513,-0.26945 0.16183,-0.39983 l 0.65687,0.35223 0.29511,-0.79966 c 0.28801,-0.71564 0.84817,-0.3116 0.84727,0.0381 l -0.0571,0.61879 c 0.37198,-0.11145 0.88386,-0.92239 1.07573,-0.13328 0.22337,0.63255 0.72102,1.23544 0.52359,1.91348 l -0.18087,0.47599 c -0.29766,0.91434 -0.96182,0.56735 -1.07574,-0.01 -0.0283,-0.73823 0.0495,-1.44106 0.13328,-2.14195 0.096,-0.62425 0.40823,-0.63924 0.6283,-0.9139 0.30427,-0.2188 0.79559,-0.43006 0.95199,-0.1428 -0.21078,-0.10332 -0.55718,0.0637 -0.96151,0.16184 -0.12964,0.19992 -0.15184,0.39983 0.0476,0.59975 0.18172,0.23764 0.41649,0.30287 0.64735,0.38079 0.37047,0.0635 0.38931,-0.0908 0.49027,-0.29036 -0.0589,-0.21014 -0.14461,-0.41399 -0.26655,-0.54738 0.43404,0.17287 0.53565,0.534 0.77586,0.81394 0.56441,-0.42826 0.33403,-1.01963 0.11145,-1.53534 0.30781,0.0361 0.63581,0.16987 0.94361,-0.042 -0.003,0.2664 -0.0183,0.61516 0.17299,0.81102 0.17406,0.18104 0.34042,0.39932 0.61879,0.0761 l 0.18088,-0.59022 0.0666,0.26655 c 0.71499,-1.06239 0.64561,-2.18186 0.50455,-2.73218 -0.21579,-1.01544 -0.64734,-1.89445 -1.21854,-2.65603 -1.41543,-1.41836 -3.04316,-2.27807 -4.94078,-2.42755 -1.70326,-0.13805 -4.23993,-0.21529 -4.96933,-0.13327 -0.764427,0.10606 -1.482164,0.39885 -2.170518,0.80918 -0.389951,0.1823 -0.765506,0.38979 -0.856784,1.09478 l -0.07616,1.86588 c 0.0062,1.27263 0.606486,1.49203 1.151897,1.80876 0.846177,0.34232 1.580565,0.53559 2.275235,0.67591 0.9284,0.24965 1.69066,0.22932 2.41803,0.15231 1.01685,-0.16336 1.79986,-0.5312 2.66554,-0.61879 0.98838,-0.2089 1.88933,-0.53067 2.70363,-0.79014 1.80544,-0.57529 3.23597,-1.18765 4.77894,-1.65644 1.04044,-0.34887 1.72328,-0.51893 2.41803,-0.69495"
       id="path8"
       sodipodi:nodetypes="ccscccccccscccccccccccccccccccccccccccccccccccccccccccccccccscc" /></g></svg>
